{
	"patcher" : 	{
		"fileversion" : 1,
		"appversion" : 		{
			"major" : 9,
			"minor" : 0,
			"revision" : 3,
			"architecture" : "x64",
			"modernui" : 1
		}
,
		"classnamespace" : "box",
		"rect" : [ 422.0, 265.0, 1729.0, 1062.0 ],
		"openinpresentation" : 1,
		"gridsize" : [ 15.0, 15.0 ],
		"boxes" : [ 			{
				"box" : 				{
					"activedialcolor" : [ 0.396078431372549, 0.341176470588235, 0.235294117647059, 0.53 ],
					"activefgdialcolor" : [ 0.0, 0.0, 0.0, 0.06 ],
					"activeneedlecolor" : [ 0.079348079365577, 0.07934804057877, 0.079348050547289, 1.0 ],
					"id" : "obj-73",
					"maxclass" : "live.dial",
					"numinlets" : 1,
					"numoutlets" : 2,
					"outlettype" : [ "", "float" ],
					"parameter_enable" : 1,
					"patching_rect" : [ 37.931031882762909, 331.724115192890167, 27.0, 48.0 ],
					"presentation" : 1,
					"presentation_rect" : [ 37.291279792785645, 18.36734676361084, 27.0, 48.0 ],
					"saved_attribute_attributes" : 					{
						"activedialcolor" : 						{
							"expression" : ""
						}
,
						"activefgdialcolor" : 						{
							"expression" : ""
						}
,
						"activeneedlecolor" : 						{
							"expression" : "themecolor.live_meter_bg"
						}
,
						"textcolor" : 						{
							"expression" : "themecolor.live_meter_bg"
						}
,
						"valueof" : 						{
							"parameter_longname" : "Rate[17]",
							"parameter_modmode" : 3,
							"parameter_osc_name" : "<default>",
							"parameter_shortname" : "Chor.",
							"parameter_type" : 0,
							"parameter_unitstyle" : 0
						}

					}
,
					"textcolor" : [ 0.079348079365577, 0.07934804057877, 0.079348050547289, 1.0 ],
					"varname" : "live.dial[14]"
				}

			}
, 			{
				"box" : 				{
					"activedialcolor" : [ 0.396078431372549, 0.341176470588235, 0.235294117647059, 0.53 ],
					"activefgdialcolor" : [ 0.0, 0.0, 0.0, 0.06 ],
					"activeneedlecolor" : [ 0.079348079365577, 0.07934804057877, 0.079348050547289, 1.0 ],
					"id" : "obj-74",
					"maxclass" : "live.dial",
					"numinlets" : 1,
					"numoutlets" : 2,
					"outlettype" : [ "", "float" ],
					"parameter_enable" : 1,
					"patching_rect" : [ 37.931031882762909, 222.758605420589447, 27.0, 48.0 ],
					"presentation" : 1,
					"presentation_rect" : [ 3.525046348571777, 18.36734676361084, 27.0, 48.0 ],
					"saved_attribute_attributes" : 					{
						"activedialcolor" : 						{
							"expression" : ""
						}
,
						"activefgdialcolor" : 						{
							"expression" : ""
						}
,
						"activeneedlecolor" : 						{
							"expression" : "themecolor.live_meter_bg"
						}
,
						"textcolor" : 						{
							"expression" : "themecolor.live_meter_bg"
						}
,
						"valueof" : 						{
							"parameter_longname" : "Rate[18]",
							"parameter_modmode" : 3,
							"parameter_osc_name" : "<default>",
							"parameter_shortname" : "Rev.",
							"parameter_type" : 0,
							"parameter_unitstyle" : 0
						}

					}
,
					"textcolor" : [ 0.079348079365577, 0.07934804057877, 0.079348050547289, 1.0 ],
					"varname" : "live.dial[15]"
				}

			}
, 			{
				"box" : 				{
					"fontname" : "Ableton Sans Bold",
					"fontsize" : 10.0,
					"id" : "obj-75",
					"maxclass" : "comment",
					"numinlets" : 1,
					"numoutlets" : 0,
					"patching_rect" : [ 19.310343503952026, 160.689644157886505, 142.0, 18.0 ],
					"presentation" : 1,
					"presentation_rect" : [ 0.185528755187988, -0.371057510375977, 67.691259816288948, 18.0 ],
					"text" : "FX",
					"textcolor" : [ 0.0, 0.0, 0.0, 1.0 ],
					"textjustification" : 1
				}

			}
, 			{
				"box" : 				{
					"id" : "obj-61",
					"maxclass" : "newobj",
					"numinlets" : 1,
					"numoutlets" : 1,
					"outlettype" : [ "int" ],
					"patching_rect" : [ 152.41378265619278, 357.931009948253632, 53.0, 22.0 ],
					"text" : "unpack i"
				}

			}
, 			{
				"box" : 				{
					"id" : "obj-68",
					"maxclass" : "newobj",
					"numinlets" : 0,
					"numoutlets" : 1,
					"outlettype" : [ "" ],
					"patching_rect" : [ 78.620684266090393, 327.586184442043304, 127.0, 22.0 ],
					"text" : "r #0_midi_channel"
				}

			}
, 			{
				"box" : 				{
					"id" : "obj-69",
					"maxclass" : "newobj",
					"numinlets" : 2,
					"numoutlets" : 2,
					"outlettype" : [ "", "" ],
					"patching_rect" : [ 64.827581763267517, 389.655145704746246, 141.0, 22.0 ],
					"text" : "superrouter chorus_level"
				}

			}
, 			{
				"box" : 				{
					"id" : "obj-53",
					"maxclass" : "newobj",
					"numinlets" : 1,
					"numoutlets" : 1,
					"outlettype" : [ "int" ],
					"patching_rect" : [ 152.41378265619278, 243.448259174823761, 53.0, 22.0 ],
					"text" : "unpack i"
				}

			}
, 			{
				"box" : 				{
					"id" : "obj-54",
					"maxclass" : "newobj",
					"numinlets" : 0,
					"numoutlets" : 1,
					"outlettype" : [ "" ],
					"patching_rect" : [ 78.620684266090393, 213.793088793754578, 127.0, 22.0 ],
					"text" : "r #0_midi_channel"
				}

			}
, 			{
				"box" : 				{
					"id" : "obj-58",
					"maxclass" : "newobj",
					"numinlets" : 2,
					"numoutlets" : 2,
					"outlettype" : [ "", "" ],
					"patching_rect" : [ 66.896547138690948, 276.551705181598663, 139.0, 22.0 ],
					"text" : "superrouter reverb_level"
				}

			}
, 			{
				"box" : 				{
					"id" : "obj-101",
					"maxclass" : "newobj",
					"numinlets" : 2,
					"numoutlets" : 2,
					"outlettype" : [ "", "" ],
					"patching_rect" : [ 19.310343503952026, 40.689652383327484, 81.0, 22.0 ],
					"text" : "route channel"
				}

			}
, 			{
				"box" : 				{
					"id" : "obj-100",
					"maxclass" : "message",
					"numinlets" : 2,
					"numoutlets" : 1,
					"outlettype" : [ "" ],
					"patching_rect" : [ 2219.310192704200745, 1162.758540987968445, 50.0, 22.0 ]
				}

			}
, 			{
				"box" : 				{
					"comment" : "",
					"id" : "obj-4",
					"index" : 0,
					"maxclass" : "inlet",
					"numinlets" : 0,
					"numoutlets" : 1,
					"outlettype" : [ "" ],
					"patching_rect" : [ 19.310343503952026, -1.379310250282288, 30.0, 30.0 ]
				}

			}
, 			{
				"box" : 				{
					"id" : "obj-23",
					"maxclass" : "newobj",
					"numinlets" : 1,
					"numoutlets" : 0,
					"patching_rect" : [ 19.310343503952026, 68.96551251411438, 129.0, 22.0 ],
					"text" : "s #0_midi_channel"
				}

			}
, 			{
				"box" : 				{
					"angle" : 270.0,
					"bgcolor" : [ 0.172137149796092, 0.172137100044002, 0.172137113045018, 0.1 ],
					"bordercolor" : [ 0.0, 0.0, 0.0, 0.0 ],
					"id" : "obj-76",
					"maxclass" : "panel",
					"mode" : 0,
					"numinlets" : 1,
					"numoutlets" : 0,
					"patching_rect" : [ 20.689653754234314, 182.068953037261963, 137.93102502822876, 18.0 ],
					"presentation" : 1,
					"presentation_rect" : [ 0.185528755187988, -0.371057510375977, 68.936171650886536, 69.36170357465744 ],
					"proportion" : 0.5
				}

			}
 ],
		"lines" : [ 			{
				"patchline" : 				{
					"destination" : [ "obj-23", 0 ],
					"source" : [ "obj-101", 0 ]
				}

			}
, 			{
				"patchline" : 				{
					"destination" : [ "obj-101", 0 ],
					"source" : [ "obj-4", 0 ]
				}

			}
, 			{
				"patchline" : 				{
					"destination" : [ "obj-58", 1 ],
					"source" : [ "obj-53", 0 ]
				}

			}
, 			{
				"patchline" : 				{
					"destination" : [ "obj-53", 0 ],
					"source" : [ "obj-54", 0 ]
				}

			}
, 			{
				"patchline" : 				{
					"destination" : [ "obj-74", 0 ],
					"midpoints" : [ 196.396547138690948, 310.96551114320755, 24.931031882762909, 310.96551114320755, 24.931031882762909, 217.96551114320755, 47.431031882762909, 217.96551114320755 ],
					"source" : [ "obj-58", 1 ]
				}

			}
, 			{
				"patchline" : 				{
					"destination" : [ "obj-69", 1 ],
					"source" : [ "obj-61", 0 ]
				}

			}
, 			{
				"patchline" : 				{
					"destination" : [ "obj-61", 0 ],
					"source" : [ "obj-68", 0 ]
				}

			}
, 			{
				"patchline" : 				{
					"destination" : [ "obj-73", 0 ],
					"midpoints" : [ 196.327581763267517, 421.96551114320755, 24.931031882762909, 421.96551114320755, 24.931031882762909, 328.96551114320755, 47.431031882762909, 328.96551114320755 ],
					"source" : [ "obj-69", 1 ]
				}

			}
, 			{
				"patchline" : 				{
					"destination" : [ "obj-69", 0 ],
					"source" : [ "obj-73", 0 ]
				}

			}
, 			{
				"patchline" : 				{
					"destination" : [ "obj-58", 0 ],
					"source" : [ "obj-74", 0 ]
				}

			}
 ],
		"originid" : "pat-8602",
		"parameters" : 		{
			"obj-73" : [ "Rate[17]", "Chor.", 0 ],
			"obj-74" : [ "Rate[18]", "Rev.", 0 ],
			"parameterbanks" : 			{
				"0" : 				{
					"index" : 0,
					"name" : "",
					"parameters" : [ "-", "-", "-", "-", "-", "-", "-", "-" ]
				}

			}
,
			"inherited_shortname" : 1
		}
,
		"dependency_cache" : [ 			{
				"name" : "superrouter.js",
				"bootpath" : "~/dev/SC554L/SC554L-maxproj/code",
				"patcherrelativepath" : "../code",
				"type" : "TEXT",
				"implicit" : 1
			}
, 			{
				"name" : "superrouter.maxpat",
				"bootpath" : "~/dev/SC554L/SC554L-maxproj/patchers",
				"patcherrelativepath" : ".",
				"type" : "JSON",
				"implicit" : 1
			}
, 			{
				"name" : "trafficcontrol.maxpat",
				"bootpath" : "~/dev/SC554L/SC554L-maxproj/patchers",
				"patcherrelativepath" : ".",
				"type" : "JSON",
				"implicit" : 1
			}
 ],
		"autosave" : 0,
		"bgcolor" : [ 0.856002330780029, 0.472421288490295, 0.198387205600739, 1.0 ],
		"editing_bgcolor" : [ 0.32156862745098, 0.32156862745098, 0.32156862745098, 1.0 ]
	}

}
